<svg width="481" height="404" viewBox="0 0 481 404" fill="none" xmlns="http://www.w3.org/2000/svg">
<path d="M313.116 399.483L223.011 236.791C222.985 236.393 222.862 236.007 222.653 235.668C222.443 235.329 222.153 235.046 221.808 234.846C221.413 234.62 220.962 234.51 220.507 234.531C220.492 234.53 220.477 234.531 220.463 234.53C220.448 234.531 220.433 234.53 220.419 234.531C219.802 234.502 219.199 234.713 218.734 235.12C218.269 235.527 217.98 236.097 217.925 236.713L122.427 399.483C122.268 399.758 122.164 400.063 122.123 400.379C122.081 400.695 122.102 401.016 122.184 401.324C122.266 401.631 122.408 401.92 122.602 402.173C122.796 402.426 123.037 402.638 123.313 402.797C123.588 402.956 123.892 403.06 124.208 403.101C124.523 403.143 124.844 403.122 125.151 403.039C125.458 402.957 125.746 402.814 125.999 402.62C126.251 402.426 126.463 402.184 126.622 401.908L220.398 242.074L308.921 401.908C309.08 402.184 309.292 402.426 309.544 402.62C309.797 402.814 310.085 402.957 310.392 403.039C310.699 403.122 311.02 403.143 311.335 403.101C311.651 403.06 311.955 402.956 312.231 402.797C312.506 402.638 312.748 402.426 312.941 402.173C313.135 401.92 313.277 401.631 313.359 401.324C313.441 401.016 313.462 400.695 313.421 400.379C313.379 400.063 313.276 399.758 313.116 399.483Z" fill="#3F3D56"/>
<path d="M205.532 371.569L215.717 369.229L211.551 328.775L196.519 332.228L205.532 371.569Z" fill="#FFB6B6"/>
<path d="M213.406 352.026L198.912 355.356L194.278 346.286L194.016 345.965C191.96 343.438 190.819 340.288 190.778 337.029L178.731 305.116L177.746 304.647C176.984 304.284 176.308 303.762 175.764 303.117C175.219 302.472 174.818 301.717 174.587 300.904C174.357 300.091 174.302 299.238 174.427 298.403C174.552 297.567 174.854 296.767 175.312 296.058L174.036 292.679L138.05 292.746L138.014 292.735L93.8226 280.321L98.4627 252.621L110.894 260.452C114.99 260.186 185.158 255.871 191.64 271.619C197.413 285.643 205.731 309.601 211.692 327.231C211.99 328.022 212.359 328.784 212.796 329.508C213.724 330.938 214.268 332.584 214.377 334.286C214.447 335.027 214.588 335.759 214.798 336.472C217.276 343.89 213.501 351.831 213.463 351.91L213.406 352.026Z" fill="#2F2E41"/>
<path d="M202.091 368.187L205.403 367.426L217.125 359.191L225.26 362.863L225.261 362.863C229.176 361.964 233.289 362.659 236.693 364.796C240.097 366.932 242.514 370.336 243.412 374.257L243.522 374.738L205.589 383.453L202.091 368.187Z" fill="#2F2E41"/>
<path d="M51.7153 369.095C52.7508 357.808 59.3528 346.507 69.9418 342.504C66.0907 354.211 66.4987 366.906 71.0938 378.341C72.8819 382.744 75.3286 387.456 73.9251 391.997C73.0519 394.823 70.7651 397.037 68.1751 398.458C65.585 399.88 62.6833 400.611 59.8177 401.329L59.2649 401.817C54.3519 391.606 50.6798 380.382 51.7153 369.095Z" fill="#F0F0F0"/>
<path d="M70.0548 342.713C64.0444 349.91 60.451 358.82 59.7852 368.178C59.6061 370.191 59.7449 372.218 60.1964 374.187C60.698 376.091 61.6996 377.825 63.0969 379.21C64.3739 380.527 65.8325 381.727 66.7675 383.332C67.2339 384.161 67.5201 385.08 67.6072 386.027C67.6944 386.974 67.5806 387.93 67.2733 388.83C66.5659 391.093 65.0886 392.967 63.5804 394.749C61.9058 396.727 60.1351 398.756 59.4789 401.329C59.3993 401.641 58.921 401.499 59.0004 401.188C60.1422 396.711 64.3603 394.054 66.2823 389.993C67.1791 388.099 67.5113 385.922 66.5513 383.983C65.7119 382.288 64.2089 381.05 62.9044 379.727C61.5214 378.396 60.485 376.746 59.8855 374.921C59.3354 372.982 59.1189 370.963 59.2452 368.951C59.4574 364.416 60.3802 359.943 61.9799 355.696C63.7787 350.838 66.3941 346.324 69.7129 342.349C69.9184 342.103 70.259 342.469 70.0548 342.713L70.0548 342.713Z" fill="white"/>
<path d="M59.8225 365.153C58.2698 364.827 56.883 363.96 55.9099 362.706C54.9367 361.451 54.4405 359.891 54.5098 358.304C54.5132 358.24 54.5416 358.179 54.5889 358.135C54.6363 358.091 54.6989 358.067 54.7635 358.068C54.8282 358.069 54.8899 358.095 54.9357 358.141C54.9814 358.187 55.0076 358.249 55.0087 358.313C54.9414 359.791 55.4038 361.244 56.3124 362.41C57.221 363.577 58.516 364.379 59.9636 364.673C60.2781 364.738 60.1352 365.216 59.8225 365.153H59.8225Z" fill="white"/>
<path d="M62.3616 378.627C65.0909 376.874 67.0599 374.155 67.8762 371.012C67.9568 370.701 68.4351 370.842 68.3546 371.153C67.4991 374.422 65.4443 377.248 62.6002 379.066C62.329 379.239 62.0919 378.8 62.3616 378.627H62.3616Z" fill="white"/>
<path d="M64.2565 351.296C64.8311 351.547 65.459 351.651 66.0838 351.599C66.7085 351.547 67.3107 351.341 67.836 350.998C68.1049 350.822 68.3417 351.262 68.0746 351.437C67.4924 351.813 66.8271 352.04 66.137 352.099C65.4468 352.158 64.7528 352.047 64.1154 351.775C64.0532 351.755 64.0011 351.711 63.9698 351.653C63.9385 351.596 63.9302 351.528 63.9467 351.465C63.9657 351.402 64.0089 351.348 64.067 351.317C64.125 351.285 64.1931 351.278 64.2565 351.296H64.2565Z" fill="white"/>
<path d="M103.22 361.535C103.055 361.65 102.891 361.765 102.726 361.884C100.519 363.441 98.4415 365.175 96.5148 367.07C96.3635 367.214 96.2124 367.362 96.0655 367.51C91.4723 372.123 87.7743 377.551 85.1594 383.516C84.121 385.89 83.2646 388.341 82.5974 390.845C81.6763 394.305 80.9524 398.129 79.0013 400.997C78.8011 401.298 78.5825 401.587 78.3466 401.861L59.903 402.455C59.8604 402.435 59.8178 402.419 59.775 402.4L59.0397 402.457C59.0651 402.326 59.0942 402.19 59.1196 402.058C59.134 401.982 59.1526 401.905 59.167 401.829C59.1779 401.778 59.189 401.727 59.196 401.68C59.1995 401.663 59.2033 401.646 59.207 401.633C59.2139 401.587 59.2253 401.544 59.2324 401.502C59.3933 400.742 59.5599 399.981 59.732 399.22C59.7319 399.216 59.7319 399.216 59.7359 399.212C60.9924 393.403 62.9325 387.765 65.5156 382.414C65.5948 382.255 65.6737 382.092 65.7614 381.933C66.9609 379.563 68.3519 377.295 69.9205 375.151C70.7832 373.98 71.7045 372.854 72.6809 371.776C75.2091 368.997 78.1581 366.633 81.4199 364.771C87.9227 361.061 95.5382 359.474 102.676 361.383C102.859 361.432 103.037 361.481 103.22 361.535Z" fill="#F0F0F0"/>
<path d="M103.186 361.77C94.0606 363.893 85.8347 368.84 79.6769 375.911C78.3243 377.409 77.216 379.112 76.3928 380.956C75.6489 382.779 75.4059 384.767 75.689 386.716C75.9165 388.538 76.3599 390.375 76.1413 392.22C76.0153 393.163 75.6918 394.069 75.1918 394.878C74.6918 395.687 74.0267 396.381 73.2401 396.915C71.3146 398.295 69.0087 398.901 66.7331 399.414C64.2065 399.984 61.5731 400.536 59.5024 402.195C59.2515 402.396 58.9548 401.994 59.2053 401.794C62.8081 398.908 67.7736 399.329 71.7493 397.246C73.6045 396.274 75.1784 394.736 75.5774 392.61C75.9264 390.75 75.4708 388.855 75.2245 387.012C74.9205 385.116 75.0848 383.174 75.7031 381.355C76.4299 379.475 77.4708 377.732 78.7814 376.202C81.677 372.709 85.103 369.694 88.9339 367.267C93.2906 364.473 98.0926 362.446 103.132 361.274C103.444 361.201 103.496 361.698 103.186 361.77V361.77Z" fill="white"/>
<path d="M81.5258 373.517C80.4815 372.322 79.8956 370.793 79.8728 369.205C79.8499 367.616 80.3916 366.072 81.4011 364.846C81.6062 364.599 81.9994 364.907 81.794 365.154C80.8519 366.293 80.3475 367.732 80.3718 369.212C80.3961 370.691 80.9475 372.112 81.9266 373.22C82.1391 373.461 81.7371 373.757 81.5258 373.517V373.517Z" fill="white"/>
<path d="M75.4521 385.807C78.6854 386.053 81.8923 385.069 84.4335 383.052C84.6851 382.852 84.9818 383.253 84.7305 383.453C82.0823 385.547 78.7429 386.564 75.3788 386.301C75.0582 386.276 75.1332 385.782 75.4521 385.807V385.807Z" fill="white"/>
<path d="M93.3967 365.127C93.7045 365.674 94.1431 366.136 94.6732 366.471C95.2033 366.806 95.8082 367.005 96.4337 367.048C96.7544 367.069 96.6791 367.563 96.3604 367.542C95.6696 367.491 95.0017 367.271 94.4153 366.902C93.8288 366.533 93.3415 366.026 92.9959 365.425C92.9586 365.371 92.9432 365.305 92.9528 365.24C92.9624 365.175 92.9964 365.116 93.0477 365.075C93.101 365.036 93.1675 365.02 93.2329 365.029C93.2982 365.039 93.3571 365.074 93.3967 365.127H93.3967Z" fill="white"/>
<path d="M353.471 369.095C352.435 357.808 345.833 346.507 335.244 342.504C339.095 354.211 338.687 366.906 334.092 378.341C332.304 382.744 329.857 387.456 331.261 391.997C332.134 394.823 334.421 397.037 337.011 398.458C339.601 399.88 342.503 400.611 345.368 401.329L345.921 401.817C350.834 391.606 354.506 380.382 353.471 369.095Z" fill="#F0F0F0"/>
<path d="M335.131 342.713C341.141 349.91 344.735 358.82 345.401 368.178C345.58 370.191 345.441 372.218 344.989 374.187C344.488 376.091 343.486 377.825 342.089 379.21C340.812 380.527 339.353 381.727 338.418 383.332C337.952 384.161 337.666 385.08 337.579 386.027C337.491 386.974 337.605 387.93 337.913 388.83C338.62 391.093 340.097 392.967 341.605 394.749C343.28 396.727 345.051 398.756 345.707 401.329C345.786 401.641 346.265 401.499 346.185 401.188C345.044 396.711 340.826 394.054 338.904 389.993C338.007 388.099 337.675 385.922 338.635 383.983C339.474 382.288 340.977 381.05 342.281 379.727C343.664 378.396 344.701 376.746 345.3 374.921C345.85 372.982 346.067 370.963 345.941 368.951C345.728 364.416 344.806 359.943 343.206 355.696C341.407 350.838 338.792 346.324 335.473 342.349C335.267 342.103 334.927 342.469 335.131 342.713L335.131 342.713Z" fill="white"/>
<path d="M345.363 365.153C346.916 364.827 348.303 363.96 349.276 362.706C350.249 361.451 350.745 359.891 350.676 358.304C350.673 358.24 350.644 358.179 350.597 358.135C350.55 358.09 350.487 358.066 350.422 358.068C350.358 358.069 350.296 358.095 350.25 358.141C350.204 358.187 350.178 358.249 350.177 358.313C350.244 359.791 349.782 361.244 348.873 362.41C347.965 363.577 346.67 364.379 345.222 364.673C344.908 364.738 345.051 365.216 345.363 365.153V365.153Z" fill="white"/>
<path d="M342.824 378.627C340.095 376.874 338.126 374.155 337.31 371.012C337.229 370.701 336.751 370.842 336.831 371.153C337.687 374.422 339.742 377.248 342.586 379.066C342.857 379.239 343.094 378.8 342.824 378.627H342.824Z" fill="white"/>
<path d="M340.929 351.296C340.355 351.547 339.727 351.651 339.102 351.599C338.477 351.547 337.875 351.341 337.35 350.998C337.081 350.822 336.844 351.262 337.111 351.437C337.693 351.813 338.359 352.04 339.049 352.099C339.739 352.158 340.433 352.047 341.07 351.775C341.133 351.755 341.185 351.711 341.216 351.653C341.247 351.596 341.256 351.528 341.239 351.465C341.22 351.402 341.177 351.348 341.119 351.317C341.061 351.285 340.993 351.278 340.929 351.296H340.929Z" fill="white"/>
<path d="M301.966 361.535C302.13 361.65 302.295 361.765 302.46 361.884C304.667 363.441 306.744 365.175 308.671 367.07C308.822 367.214 308.973 367.362 309.12 367.51C313.714 372.123 317.412 377.551 320.026 383.516C321.065 385.89 321.921 388.341 322.588 390.845C323.51 394.305 324.233 398.129 326.185 400.997C326.385 401.298 326.603 401.587 326.839 401.861L345.283 402.455C345.325 402.435 345.368 402.419 345.411 402.4L346.146 402.457C346.121 402.326 346.092 402.19 346.066 402.058C346.052 401.982 346.033 401.905 346.019 401.829C346.008 401.778 345.997 401.727 345.99 401.68C345.986 401.663 345.983 401.646 345.979 401.633C345.972 401.587 345.961 401.544 345.953 401.502C345.793 400.742 345.626 399.981 345.454 399.22C345.454 399.216 345.454 399.216 345.45 399.212C344.193 393.403 342.253 387.765 339.67 382.414C339.591 382.255 339.512 382.092 339.424 381.933C338.225 379.563 336.834 377.295 335.265 375.151C334.403 373.98 333.481 372.854 332.505 371.776C329.977 368.997 327.028 366.633 323.766 364.771C317.263 361.061 309.648 359.474 302.51 361.383C302.327 361.432 302.148 361.481 301.966 361.535Z" fill="#F0F0F0"/>
<path d="M302 361.77C311.125 363.893 319.351 368.84 325.509 375.911C326.862 377.409 327.97 379.112 328.793 380.956C329.537 382.779 329.78 384.767 329.497 386.716C329.269 388.538 328.826 390.375 329.045 392.22C329.171 393.163 329.494 394.069 329.994 394.878C330.494 395.687 331.159 396.381 331.946 396.915C333.871 398.295 336.177 398.901 338.453 399.414C340.979 399.984 343.613 400.536 345.684 402.195C345.934 402.396 346.231 401.994 345.981 401.794C342.378 398.908 337.412 399.329 333.437 397.246C331.581 396.274 330.008 394.736 329.608 392.61C329.259 390.75 329.715 388.855 329.961 387.012C330.265 385.116 330.101 383.174 329.483 381.355C328.756 379.475 327.715 377.732 326.405 376.202C323.509 372.709 320.083 369.694 316.252 367.267C311.895 364.473 307.093 362.446 302.054 361.274C301.742 361.201 301.69 361.698 302 361.77V361.77Z" fill="white"/>
<path d="M323.66 373.517C324.704 372.322 325.29 370.793 325.313 369.205C325.336 367.616 324.794 366.072 323.785 364.846C323.58 364.599 323.186 364.907 323.392 365.154C324.334 366.293 324.838 367.732 324.814 369.212C324.79 370.691 324.238 372.112 323.259 373.22C323.047 373.461 323.449 373.757 323.66 373.517V373.517Z" fill="white"/>
<path d="M329.734 385.807C326.5 386.053 323.294 385.069 320.752 383.052C320.501 382.852 320.204 383.253 320.455 383.453C323.104 385.547 326.443 386.564 329.807 386.301C330.128 386.276 330.053 385.782 329.734 385.807V385.807Z" fill="white"/>
<path d="M311.789 365.127C311.481 365.674 311.043 366.136 310.513 366.471C309.983 366.806 309.378 367.005 308.752 367.048C308.431 367.069 308.507 367.563 308.826 367.542C309.516 367.491 310.184 367.271 310.771 366.902C311.357 366.533 311.844 366.026 312.19 365.425C312.227 365.371 312.243 365.305 312.233 365.24C312.223 365.175 312.189 365.116 312.138 365.075C312.085 365.036 312.018 365.02 311.953 365.029C311.888 365.039 311.829 365.074 311.789 365.127H311.789Z" fill="white"/>
<path d="M481 403.359C481 403.529 480.932 403.691 480.812 403.812C480.692 403.932 480.529 404 480.36 404H0.640732C0.470864 404 0.307952 403.932 0.187837 403.812C0.0677229 403.692 0.000244141 403.529 0.000244141 403.359C0.000244141 403.188 0.0677229 403.025 0.187837 402.905C0.307952 402.785 0.470864 402.717 0.640732 402.717H480.36C480.529 402.718 480.692 402.785 480.812 402.905C480.932 403.026 481 403.189 481 403.359V403.359Z" fill="#3F3D56"/>
<path d="M309.001 155.233C310.338 155.233 311.423 154.147 311.423 152.808C311.423 151.468 310.338 150.382 309.001 150.382C307.663 150.382 306.579 151.468 306.579 152.808C306.579 154.147 307.663 155.233 309.001 155.233Z" fill="#3F3D56"/>
<path d="M278.672 171.491L311.325 150.947C311.62 150.761 311.95 150.637 312.295 150.582C312.639 150.528 312.991 150.544 313.329 150.629C313.668 150.715 313.985 150.868 314.263 151.08C314.54 151.291 314.772 151.557 314.944 151.861C315.116 152.165 315.225 152.501 315.263 152.848C315.302 153.195 315.27 153.547 315.17 153.881C315.069 154.216 314.902 154.526 314.678 154.794C314.454 155.062 314.179 155.282 313.868 155.44L279.492 172.939C279.301 173.036 279.08 173.056 278.875 172.994C278.67 172.932 278.497 172.794 278.391 172.607C278.286 172.421 278.256 172.2 278.308 171.993C278.361 171.785 278.491 171.605 278.672 171.491V171.491Z" fill="#E4E4E4"/>
<path d="M213.165 215.727C212.908 215.344 212.773 214.891 212.78 214.43C212.787 213.968 212.934 213.52 213.202 213.145C213.755 212.404 214.49 211.819 215.337 211.449C217.084 210.559 218.966 209.963 220.907 209.687C222.382 209.477 223.992 209.41 225.136 208.455C226.272 207.505 226.906 205.731 228.378 205.582C229.802 205.439 230.896 207 232.324 207.097C234.084 207.216 235.236 205.154 236.948 204.731C238.094 204.448 239.273 204.947 240.348 205.436L246.8 208.367L250.107 209.869C251.262 210.394 252.564 211.101 252.782 212.352C253.082 214.072 251.173 215.285 249.54 215.895C237.882 220.204 225.071 220.205 213.412 215.9" fill="#F9A826"/>
<path d="M222.885 247.403C269.702 247.403 307.655 241.973 307.655 235.275C307.655 228.578 269.702 223.148 222.885 223.148C176.067 223.148 138.114 228.578 138.114 235.275C138.114 241.973 176.067 247.403 222.885 247.403Z" fill="#3F3D56"/>
<path d="M394.847 310.467H336.719C334.044 310.467 331.875 312.638 331.875 315.318C331.875 317.997 334.044 320.169 336.719 320.169H394.847C397.523 320.169 399.691 317.997 399.691 315.318C399.691 312.638 397.523 310.467 394.847 310.467Z" fill="#3F3D56"/>
<path d="M423.018 223.978L403.819 315.312L408.82 338.689L418.26 382.806V402.636C418.261 402.663 418.259 402.69 418.255 402.717C418.251 403.155 418.171 403.59 418.018 404H410.429C410.275 403.59 410.195 403.155 410.192 402.717C410.188 402.69 410.186 402.663 410.187 402.636V383.658L401.618 343.615L399.885 335.53L396.532 319.861L395.563 315.323V315.318L396.521 310.768L397.259 307.259L415.117 222.318C415.225 221.798 415.435 221.304 415.734 220.866C416.033 220.427 416.415 220.051 416.859 219.761C417.303 219.47 417.8 219.27 418.321 219.171C418.842 219.073 419.378 219.079 419.897 219.188C420.416 219.297 420.909 219.507 421.346 219.807C421.784 220.107 422.159 220.49 422.449 220.935C422.739 221.38 422.938 221.878 423.036 222.4C423.133 222.922 423.127 223.458 423.018 223.978L423.018 223.978Z" fill="#3F3D56"/>
<path d="M340.756 315.318V402.636C340.757 402.663 340.755 402.69 340.751 402.717C340.747 403.155 340.667 403.59 340.513 404H332.925C332.771 403.59 332.691 403.155 332.688 402.717C332.683 402.69 332.682 402.663 332.682 402.636V315.318C332.682 314.245 333.108 313.217 333.865 312.459C334.622 311.701 335.649 311.275 336.719 311.275C337.79 311.275 338.816 311.701 339.573 312.459C340.33 313.217 340.756 314.245 340.756 315.318Z" fill="#3F3D56"/>
<path d="M346.407 300.764H385.159C389.013 300.764 392.71 302.298 395.435 305.027C398.16 307.756 399.691 311.458 399.691 315.318V315.318H331.875C331.875 311.458 333.406 307.756 336.131 305.027C338.857 302.298 342.553 300.764 346.407 300.764V300.764Z" fill="#3F3D56"/>
<path d="M404.535 343.615H336.719C335.649 343.615 334.622 343.189 333.865 342.431C333.108 341.673 332.682 340.645 332.682 339.573C332.682 338.501 333.108 337.472 333.865 336.714C334.622 335.956 335.649 335.53 336.719 335.53H404.535C405.606 335.53 406.633 335.956 407.39 336.714C408.147 337.472 408.572 338.501 408.572 339.573C408.572 340.645 408.147 341.673 407.39 342.431C406.633 343.189 405.606 343.615 404.535 343.615Z" fill="#3F3D56"/>
<path d="M89.0872 320.316H157.491C160.166 320.316 162.335 318.144 162.335 315.465V313.995C162.335 311.315 160.166 309.144 157.491 309.144H89.0872C86.4119 309.144 84.2432 311.315 84.2432 313.995V315.465C84.2432 318.144 86.4119 320.316 89.0872 320.316Z" fill="#3F3D56"/>
<path d="M88.3827 314.795L87.1446 319.905L82.602 338.619L80.6431 346.704L71.5469 384.208V400.48C71.5493 401.277 71.3131 402.056 70.8688 402.717C70.5196 403.252 70.0446 403.692 69.4857 404H65.5349C64.976 403.692 64.5011 403.252 64.1518 402.717C63.7075 402.056 63.4712 401.277 63.4735 400.48V383.238L73.5815 341.573L80.1048 314.665L57.9838 209.425C57.8743 208.905 57.8681 208.369 57.9656 207.848C58.0631 207.326 58.2623 206.828 58.5519 206.384C58.8415 205.939 59.2158 205.556 59.6533 205.256C60.0909 204.956 60.5831 204.746 61.1019 204.637C61.6207 204.528 62.1559 204.522 62.6768 204.62C63.1978 204.719 63.6943 204.919 64.138 205.209C64.5817 205.5 64.9639 205.875 65.2627 206.313C65.5615 206.752 65.7711 207.245 65.8795 207.765L86.3267 305.017L87.2686 309.502L88.3664 314.73L88.3827 314.795Z" fill="#3F3D56"/>
<path d="M160.795 314.73V400.48C160.798 401.277 160.561 402.056 160.117 402.717C159.768 403.252 159.293 403.692 158.734 404H154.778C154.222 403.69 153.749 403.25 153.4 402.717C152.956 402.056 152.72 401.277 152.722 400.48V314.73C152.722 313.658 153.147 312.63 153.904 311.872C154.661 311.113 155.688 310.688 156.759 310.688C157.829 310.688 158.856 311.113 159.613 311.872C160.37 312.63 160.795 313.658 160.795 314.73Z" fill="#3F3D56"/>
<path d="M162.335 314.73H84.2432V312.525C84.2432 310.613 84.619 308.721 85.3493 306.955C86.0796 305.19 87.1501 303.585 88.4995 302.234C89.8489 300.883 91.4509 299.811 93.214 299.079C94.9771 298.348 96.8668 297.971 98.7752 297.971H147.803C151.657 297.971 155.353 299.505 158.078 302.234C160.804 304.963 162.335 308.665 162.335 312.525V314.73H162.335Z" fill="#3F3D56"/>
<path d="M156.757 346.702H78.6652C77.5946 346.702 76.5679 346.276 75.8108 345.518C75.0538 344.76 74.6285 343.732 74.6285 342.66C74.6285 341.588 75.0538 340.559 75.8108 339.801C76.5679 339.043 77.5946 338.617 78.6652 338.617H156.757C157.827 338.617 158.854 339.043 159.611 339.801C160.368 340.559 160.793 341.588 160.793 342.66C160.793 343.732 160.368 344.76 159.611 345.518C158.854 346.276 157.827 346.702 156.757 346.702Z" fill="#3F3D56"/>
<path d="M257.117 381.966L248.633 377.902L260.287 342.388L272.809 348.385L257.117 381.966Z" fill="#9E616A"/>
<path d="M314.614 378.749L305.492 381.003L292.273 346.051L305.739 342.723L314.614 378.749Z" fill="#9E616A"/>
<path d="M279.648 227.604C280.858 229.572 282.788 230.988 285.027 231.551C287.265 232.113 289.635 231.777 291.629 230.614C292.031 230.371 292.411 230.095 292.766 229.789L319.59 245.204L318.425 229.38L293.132 217.167C291.755 215.783 289.959 214.895 288.025 214.643C286.09 214.39 284.127 214.788 282.443 215.773C281.473 216.356 280.629 217.128 279.962 218.043C279.294 218.957 278.816 219.996 278.556 221.099C278.295 222.201 278.258 223.345 278.445 224.462C278.633 225.579 279.042 226.647 279.648 227.604V227.604Z" fill="#9E616A"/>
<path d="M308.058 239.4L312.799 242.293L334.093 255.297C335.492 256.174 337.05 256.766 338.677 257.039C340.304 257.312 341.969 257.261 343.577 256.89C345.184 256.518 346.703 255.833 348.046 254.873C349.389 253.913 350.53 252.698 351.404 251.296C352.98 248.695 353.538 245.6 352.97 242.611L343.505 195.258C343.156 193.399 342.409 191.638 341.317 190.095C340.225 188.551 338.814 187.262 337.178 186.315C335.543 185.369 333.723 184.787 331.842 184.609C329.962 184.432 328.065 184.663 326.282 185.287C323.285 186.342 320.802 188.501 319.338 191.324C317.873 194.147 317.538 197.423 318.4 200.485L328.297 234.09L313.127 227.007L308.058 239.4Z" fill="#E6E6E6"/>
<path d="M296.847 368.954L282.248 339.633L282.25 339.566L283.692 285.786C283.71 285.308 283.748 284.827 283.806 284.354C284.061 282.198 284.742 280.114 285.809 278.224C286.876 276.333 288.308 274.675 290.022 273.345C291.663 272.059 293.544 271.113 295.554 270.562C297.564 270.012 299.664 269.867 301.73 270.138L343.475 275.548L344.923 269.62L345.192 269.521L385.19 254.841L385.421 255.217C390.659 263.753 394.321 280.804 395.319 285.826L395.333 285.898C395.354 286.004 395.367 286.068 395.371 286.087C397.43 294.658 388.922 308.855 380.446 310.989C362.593 315.546 346.627 311.992 328.139 307.875C321.509 306.398 314.658 304.872 307.111 303.553L307.335 308.001C307.519 311.425 308.229 314.8 309.441 318.006C310.786 321.953 311.849 325.07 309.602 331.57L308.515 334.715C309.079 336.276 309.273 337.946 309.082 339.595C308.891 341.244 308.32 342.826 307.414 344.217L307.196 344.551L316.823 368.949L296.847 368.954Z" fill="#2F2E41"/>
<path d="M272.861 355.987L255.452 354.367L261.619 334.614C262.892 321.716 266.099 309.084 271.132 297.144L279.545 277.178C279.564 276.734 279.602 276.287 279.656 275.848C279.91 273.692 280.591 271.608 281.658 269.718C282.725 267.828 284.158 266.169 285.871 264.839C287.513 263.553 289.394 262.608 291.404 262.057C293.414 261.507 295.513 261.363 297.579 261.633L339.263 267.035L341.078 251.775L381.087 246.413L381.27 246.712C388.263 258.107 392.703 267.027 395.242 274.785C395.369 275.181 395.482 275.584 395.579 275.987C397.652 284.615 392.477 293.363 384.043 295.487C362.549 300.975 336.702 300.823 302.719 295.005L286.273 334.201C284.701 337.945 282.754 341.52 280.463 344.871L272.861 355.987Z" fill="#2F2E41"/>
<path d="M333.585 158.111C344.723 158.111 353.751 148.868 353.751 137.466C353.751 126.064 344.723 116.821 333.585 116.821C322.448 116.821 313.42 126.064 313.42 137.466C313.42 148.868 322.448 158.111 333.585 158.111Z" fill="#9E616A"/>
<path d="M339.408 267.755L336.515 257.375L335.803 252.254L331.644 252.393L323.482 233.526L320.312 228.551C319.666 227.869 319.08 227.214 318.555 226.584C315.252 222.845 312.603 218.574 310.721 213.952C309.402 210.63 308.628 207.117 308.428 203.548C307.836 193.007 312.274 181.854 321.994 169.454C321.835 169.015 321.729 168.559 321.678 168.094C321.504 166.588 321.931 165.074 322.866 163.881C323.801 162.689 325.169 161.914 326.671 161.727L336.047 160.672C336.776 160.59 337.514 160.653 338.219 160.859C338.923 161.064 339.579 161.408 340.15 161.87C340.745 162.348 341.24 162.94 341.605 163.612C341.97 164.283 342.197 165.021 342.275 165.781C342.4 166.957 342.169 168.144 341.612 169.187C346.391 169.795 350.893 171.77 354.579 174.876C358.265 177.982 360.978 182.087 362.392 186.699C368.002 197.187 372.474 208.247 375.73 219.689C376.372 221.93 376.086 224.24 375.81 226.473C375.554 228.536 375.29 230.669 375.734 232.795C376.186 234.957 377.272 237.126 378.422 239.423C379.74 242.053 381.102 244.773 381.47 247.545L381.496 247.74L339.408 267.755Z" fill="#E4E4E4"/>
<path opacity="0.2" d="M310.97 213.849C312.844 218.445 315.478 222.692 318.761 226.411C319.324 227.084 319.918 227.744 320.539 228.406L323.729 233.419C335.489 224.592 345.016 189.836 345.016 189.836L331.748 187.251L310.97 213.849Z" fill="black"/>
<path d="M302.938 160.04C304.1 162.038 304.437 164.412 303.878 166.656C303.319 168.9 301.907 170.836 299.944 172.054C299.541 172.295 299.119 172.503 298.682 172.674L299.621 203.632L286.234 195.192L287.395 167.088C286.825 165.218 286.89 163.212 287.579 161.382C288.267 159.553 289.542 158.003 291.202 156.975C292.17 156.389 293.245 156.003 294.363 155.84C295.482 155.677 296.622 155.74 297.716 156.026C298.81 156.312 299.836 156.814 300.733 157.504C301.63 158.193 302.379 159.055 302.938 160.04V160.04Z" fill="#9E616A"/>
<path d="M300.798 191.946L286.076 194.043L286.709 224.573C286.746 226.751 287.338 228.883 288.43 230.767C289.521 232.651 291.075 234.225 292.945 235.338V235.338C295.229 236.684 297.888 237.249 300.522 236.95C303.155 236.651 305.62 235.502 307.544 233.678L342.3 200.199C344.746 197.876 346.209 194.703 346.39 191.332C346.57 187.961 345.454 184.649 343.271 182.077V182.077C342.191 180.797 340.865 179.747 339.371 178.989C337.878 178.232 336.248 177.782 334.578 177.668C332.908 177.553 331.232 177.776 329.65 178.323C328.067 178.869 326.61 179.728 325.366 180.85C325.022 181.157 324.696 181.483 324.387 181.826L301.438 208.265L300.798 191.946Z" fill="#E6E6E6"/>
<path d="M177.67 391.084L188.119 391.084L193.09 350.721L177.668 350.722L177.67 391.084Z" fill="#FFB6B6"/>
<path d="M118.442 158.71C129.96 158.71 139.297 149.36 139.297 137.825C139.297 126.29 129.96 116.939 118.442 116.939C106.924 116.939 97.5867 126.29 97.5867 137.825C97.5867 149.36 106.924 158.71 118.442 158.71Z" fill="#FFB6B6"/>
<path d="M191.529 378.651H176.732L172.96 373.587L171.939 368.816L171.06 367.964C169.868 366.818 169.097 365.302 168.872 363.662C168.648 362.023 168.983 360.355 169.823 358.93L159.099 308.824C156.291 308.576 124.616 305.74 102.597 301.838C96.9624 300.839 92.5629 298.096 89.5209 293.685C82.0462 282.845 85.2482 265.305 85.2813 265.13L85.3183 264.934L85.5158 264.912L136.946 259.131L137.015 259.164C138.721 259.973 178.889 279.07 185.453 285.644C188.418 288.612 195.031 306.248 196.511 324.998C196.776 328.357 195.822 331.778 194.899 335.086C194.035 338.182 193.142 341.382 193.319 344.408C193.591 349.077 193.849 353.974 194.086 358.964C194.123 359.759 194.722 360.582 195.3 361.378C195.904 362.209 196.475 362.994 196.512 363.816C196.863 371.785 191.662 378.481 191.61 378.548L191.529 378.651Z" fill="#2F2E41"/>
<path d="M194.899 193.453C193.778 193.147 192.604 193.09 191.46 193.286C190.315 193.483 189.227 193.929 188.273 194.592C187.319 195.255 186.522 196.12 185.937 197.125C185.353 198.131 184.996 199.252 184.891 200.41L167.563 205.834L168.286 217.184L192.649 209.18C194.604 209.227 196.508 208.555 198.001 207.29C199.494 206.025 200.472 204.256 200.749 202.317C201.026 200.379 200.584 198.406 199.506 196.772C198.427 195.138 196.788 193.958 194.899 193.453V193.453Z" fill="#FFB6B6"/>
<path d="M183.592 212.235L170.642 217.143L170.31 217.787C169.516 219.329 168.143 220.493 166.493 221.021C164.842 221.55 163.049 221.4 161.509 220.605V220.605L132.399 231.638C132.399 231.638 119.4 218.611 110.144 206.984L113.299 187.554C114.029 183.046 115.582 178.711 117.88 174.766C136.861 178.934 147.756 205.506 147.756 205.506L181.965 198.97L183.592 212.235Z" fill="#2A9F85"/>
<path d="M115.478 157.594C110.257 159.006 104.501 157.129 100.427 153.567C96.3521 150.006 93.8033 144.96 92.3347 139.747C91.2591 135.93 90.7491 131.692 92.4464 128.108C94.1437 124.524 98.7118 122.106 102.236 123.917C100.062 121.38 101.148 117.184 103.687 115.014C106.226 112.844 109.713 112.222 113.034 111.882C117.853 111.388 122.831 111.333 127.417 112.897C132.003 114.46 136.17 117.879 137.605 122.513C139.071 123.196 140.722 123.373 142.299 123.017C143.877 122.66 145.291 121.79 146.322 120.542C146.587 121.975 146.374 123.456 145.715 124.756C145.055 126.055 143.986 127.101 142.674 127.731L149.7 125.45C150.909 128.011 148.791 131.181 146.084 132.002C143.376 132.822 140.453 131.925 137.883 130.74C135.314 129.555 132.824 128.057 130.033 127.595C127.242 127.132 123.963 128.031 122.672 130.551C121.996 131.872 121.961 133.418 121.568 134.849C121.176 136.28 120.181 137.763 118.704 137.88C117.771 137.954 116.857 137.456 115.926 137.558C114.773 137.684 113.89 138.731 113.582 139.852C113.351 140.994 113.348 142.171 113.574 143.314L115.359 156.977" fill="#2F2E41"/>
<path d="M89.6408 296.18C89.6368 296.18 89.6329 296.18 89.629 296.179L89.4641 296.151L89.4164 295.99C88.8168 293.971 88.0538 291.903 87.3159 289.904C86.2292 287.135 85.3117 284.302 84.5683 281.422C83.9833 278.668 83.5776 275.879 83.354 273.072C83.1481 271.035 82.9352 268.928 82.5733 266.854C82.4126 265.933 83.0216 265.06 83.6107 264.217C84.1568 263.435 84.6726 262.696 84.5644 261.997C84.4537 261.283 83.6624 260.498 82.8972 259.739C82.0583 258.907 81.191 258.047 81.0682 257.141C79.3964 244.787 78.6182 232.328 78.7398 219.862C78.9126 202.614 79.691 190.857 81.0533 184.918C84.7163 168.949 101.64 166.034 104.289 165.675C104.571 164.922 105.005 164.236 105.563 163.658C106.121 163.081 106.793 162.625 107.535 162.318C108.277 162.012 109.074 161.862 109.876 161.877C110.679 161.892 111.47 162.073 112.2 162.407L124.224 167.92C126.663 169.042 128.846 170.654 130.636 172.657C132.427 174.66 133.787 177.01 134.632 179.561L136.418 185.014L137.313 221.623L132.355 247.403L142.043 261.956C90.409 290.345 89.8071 296.18 89.6408 296.18Z" fill="#2A9F85"/>
<path d="M172.047 387.017L175.444 387.017L188.708 381.615L195.817 387.016H195.818C199.836 387.016 203.689 388.615 206.529 391.46C209.37 394.304 210.966 398.163 210.967 402.186V402.679L172.048 402.681L172.047 387.017Z" fill="#2F2E41"/>
<path d="M199.237 219.578C198.236 218.989 197.117 218.627 195.961 218.518C194.805 218.409 193.638 218.555 192.545 218.946C191.451 219.337 190.456 219.963 189.63 220.781C188.804 221.599 188.167 222.588 187.764 223.679L169.623 224.388L167.179 232.85L192.969 234.172C194.844 234.728 196.857 234.577 198.628 233.746C200.399 232.915 201.803 231.462 202.576 229.663C203.349 227.864 203.436 225.844 202.82 223.985C202.205 222.126 200.93 220.558 199.237 219.578V219.578Z" fill="#FFB6B6"/>
<path d="M184.336 234.746L165.701 234.513L163.342 234.481L125.429 234.003C125.429 234.003 115.134 224.167 106.169 214.039L107.425 204.938C108.651 196.005 113.076 187.823 119.876 181.914C132.715 190.506 140.162 207.513 140.162 207.513L152.647 213.107C161.433 213.501 169.995 216.012 177.605 220.427L181.711 222.809L184.336 234.746Z" fill="#2A9F85"/>
<path d="M321.271 395.966L315.071 397.498L312.52 391.909L311.13 398.472L294.685 402.536C293.897 402.731 293.067 402.669 292.317 402.358C291.566 402.047 290.935 401.504 290.515 400.808C290.095 400.113 289.907 399.301 289.98 398.491C290.054 397.681 290.383 396.916 290.921 396.307L301.815 383.979L300.355 378.052L314.371 375.464L321.271 395.966Z" fill="#2F2E41"/>
<path d="M255.586 397.882L249.673 395.465L250.896 389.443L245.914 393.928L230.232 387.518C229.481 387.211 228.847 386.671 228.423 385.978C227.999 385.284 227.808 384.473 227.877 383.663C227.947 382.853 228.273 382.086 228.808 381.474C229.343 380.863 230.059 380.439 230.852 380.264L246.906 376.722L249.209 371.07L262.061 377.242L255.586 397.882Z" fill="#2F2E41"/>
<path d="M234.995 233.119H230.151C224.942 233.113 219.949 231.039 216.266 227.351C212.583 223.662 210.511 218.662 210.506 213.446V213.176H254.64V213.446C254.634 218.662 252.562 223.662 248.879 227.351C245.197 231.039 240.203 233.113 234.995 233.119V233.119Z" fill="#E4E4E4"/>
<path d="M230.151 206.169C230.151 207.509 227.729 208.595 227.729 208.595C227.729 208.595 225.307 207.509 225.307 206.169C225.307 204.83 227.729 203.744 227.729 203.744C227.729 203.744 230.151 204.83 230.151 206.169Z" fill="#3F3D56"/>
<path d="M244.683 206.169C244.683 207.509 242.261 208.595 242.261 208.595C242.261 208.595 239.839 207.509 239.839 206.169C239.839 204.83 242.261 203.744 242.261 203.744C242.261 203.744 244.683 204.83 244.683 206.169Z" fill="#3F3D56"/>
<path d="M234.995 211.02C234.995 212.36 232.573 213.446 232.573 213.446C232.573 213.446 230.151 212.36 230.151 211.02C230.151 209.681 232.573 208.595 232.573 208.595C232.573 208.595 234.995 209.681 234.995 211.02Z" fill="#3F3D56"/>
<path d="M218.041 201.049C219.378 201.049 220.463 199.963 220.463 198.623C220.463 197.284 219.378 196.198 218.041 196.198C216.703 196.198 215.619 197.284 215.619 198.623C215.619 199.963 216.703 201.049 218.041 201.049Z" fill="#3F3D56"/>
<path d="M182.816 193.411L221.015 198.694C221.361 198.742 221.693 198.859 221.992 199.039C222.291 199.219 222.551 199.458 222.755 199.741C222.959 200.024 223.104 200.346 223.181 200.687C223.257 201.028 223.264 201.38 223.201 201.724C223.138 202.067 223.005 202.395 222.812 202.686C222.619 202.977 222.369 203.225 222.077 203.417C221.786 203.608 221.458 203.739 221.115 203.8C220.771 203.861 220.419 203.852 220.079 203.773L182.515 195.048C182.306 194.999 182.124 194.872 182.007 194.693C181.889 194.513 181.845 194.296 181.884 194.085C181.923 193.874 182.042 193.686 182.215 193.56C182.389 193.435 182.604 193.381 182.816 193.411V193.411Z" fill="#E4E4E4"/>
<path d="M229.235 72.8803V0H224.391V72.8803C217.772 73.4851 211.619 76.5454 207.138 81.4605C202.657 86.3757 200.172 92.7906 200.171 99.4463V106.723H217.125C217.125 109.296 218.146 111.764 219.963 113.583C221.779 115.403 224.244 116.425 226.813 116.425C229.382 116.425 231.847 115.403 233.663 113.583C235.48 111.764 236.501 109.296 236.501 106.723H253.455V99.4463C253.454 92.7907 250.969 86.3757 246.488 81.4606C242.007 76.5454 235.853 73.4851 229.235 72.8803V72.8803Z" fill="#F0F0F0"/>
<path d="M291.602 54.6603V0H287.969V54.6603C283.005 55.1138 278.39 57.4091 275.029 61.0954C271.668 64.7818 269.804 69.593 269.804 74.5847V80.0422H282.519C282.519 81.972 283.285 83.8228 284.647 85.1875C286.01 86.5521 287.858 87.3187 289.785 87.3187C291.712 87.3187 293.56 86.5521 294.923 85.1875C296.286 83.8228 297.051 81.972 297.051 80.0422H309.767V74.5847C309.766 69.593 307.903 64.7818 304.542 61.0954C301.181 57.4091 296.566 55.1138 291.602 54.6603V54.6603Z" fill="#F0F0F0"/>
<path d="M168.887 54.6603V0H165.254V54.6603C160.29 55.1138 155.674 57.4091 152.314 61.0954C148.953 64.7818 147.089 69.593 147.089 74.5847V80.0422H159.804C159.804 81.972 160.57 83.8228 161.932 85.1875C163.295 86.5521 165.143 87.3187 167.07 87.3187C168.997 87.3187 170.845 86.5521 172.208 85.1875C173.571 83.8228 174.336 81.972 174.336 80.0422H187.052V74.5847C187.051 69.593 185.187 64.7818 181.827 61.0954C178.466 57.4091 173.851 55.1138 168.887 54.6603V54.6603Z" fill="#F0F0F0"/>
<path d="M387.547 128.512C384.119 124.509 382.49 119.198 379.75 114.652C377.009 110.106 372.241 106.038 367.203 107.096C363.73 107.825 361.047 110.894 359.688 114.315C358.329 117.737 358.075 121.51 357.837 125.206C357.921 117.61 352.924 110.246 346.04 107.822C339.156 105.398 330.918 108.102 326.593 114.205C324.705 112.452 322.241 111.455 319.668 111.401C317.095 111.347 314.591 112.24 312.632 113.911C308.763 117.374 307.907 123.965 310.752 128.382C313.597 132.8 319.76 134.445 324.282 131.995L325.88 133.468C324.98 136.62 326.725 140.343 329.659 141.529C332.037 142.492 335.396 142.331 336.286 144.831C336.908 146.578 335.745 148.442 334.508 149.785C333.272 151.127 331.804 152.513 331.655 154.37C331.431 157.173 334.322 159.136 336.951 159.727C343.29 161.153 350.324 158.213 353.977 152.611C354.048 152.503 354.124 152.395 354.207 152.287C356.257 149.661 357.75 146.645 358.597 143.423C359.444 140.2 359.625 136.838 359.13 133.543C358.925 132.248 359.132 131.285 360.023 130.978C363.876 129.653 374.671 132.434 377.938 134.949C381.206 137.463 383.822 140.79 386.969 143.466C390.116 146.143 394.126 148.207 398.121 147.478C401.322 146.895 404.044 144.568 405.875 141.761C407.706 138.955 408.76 135.684 409.704 132.433C402.627 136.527 392.943 134.813 387.547 128.512Z" fill="#2F2E41"/>
</svg>
